# Blender v2.93.5 OBJ File: ''
# www.blender.org
mtllib jet_engine.mtl
o Cylinder_Cylinder.001
v 0.000000 -1.000000 -1.000000
v 0.000000 1.000000 -0.408293
v 0.195090 -1.000000 -0.980785
v 0.079654 1.000000 -0.400448
v 0.382683 -1.000000 -0.923880
v 0.156247 1.000000 -0.377214
v 0.555570 -1.000000 -0.831470
v 0.226836 1.000000 -0.339483
v 0.707107 -1.000000 -0.707107
v 0.288707 1.000000 -0.288707
v 0.831470 -1.000000 -0.555570
v 0.339483 1.000000 -0.226836
v 0.923880 -1.000000 -0.382683
v 0.377214 1.000000 -0.156247
v 0.980785 -1.000000 -0.195090
v 0.400448 1.000000 -0.079654
v 1.000000 -1.000000 0.000000
v 0.408293 1.000000 0.000000
v 0.980785 -1.000000 0.195090
v 0.400448 1.000000 0.079654
v 0.923880 -1.000000 0.382683
v 0.377214 1.000000 0.156247
v 0.831470 -1.000000 0.555570
v 0.339483 1.000000 0.226836
v 0.707107 -1.000000 0.707107
v 0.288707 1.000000 0.288707
v 0.555570 -1.000000 0.831470
v 0.226836 1.000000 0.339484
v 0.382683 -1.000000 0.923880
v 0.156247 1.000000 0.377214
v 0.195090 -1.000000 0.980785
v 0.079654 1.000000 0.400448
v -0.000000 -1.000000 1.000000
v -0.000000 1.000000 0.408293
v -0.195090 -1.000000 0.980785
v -0.079654 1.000000 0.400448
v -0.382683 -1.000000 0.923880
v -0.156247 1.000000 0.377214
v -0.555570 -1.000000 0.831470
v -0.226836 1.000000 0.339483
v -0.707107 -1.000000 0.707107
v -0.288707 1.000000 0.288707
v -0.831469 -1.000000 0.555570
v -0.339483 1.000000 0.226836
v -0.923880 -1.000000 0.382684
v -0.377214 1.000000 0.156247
v -0.980785 -1.000000 0.195090
v -0.400448 1.000000 0.079654
v -1.000000 -1.000000 -0.000000
v -0.408293 1.000000 0.000000
v -0.980785 -1.000000 -0.195090
v -0.400448 1.000000 -0.079654
v -0.923879 -1.000000 -0.382684
v -0.377214 1.000000 -0.156247
v -0.831470 -1.000000 -0.555570
v -0.339484 1.000000 -0.226836
v -0.707107 -1.000000 -0.707107
v -0.288707 1.000000 -0.288707
v -0.555570 -1.000000 -0.831470
v -0.226836 1.000000 -0.339483
v -0.382683 -1.000000 -0.923880
v -0.156247 1.000000 -0.377214
v -0.195090 -1.000000 -0.980785
v -0.079654 1.000000 -0.400448
v 0.000000 0.000000 -0.633028
v 0.123498 0.000000 -0.620865
v 0.242250 0.000000 -0.584842
v 0.351692 0.000000 -0.526344
v 0.447619 0.000000 -0.447619
v 0.526344 0.000000 -0.351692
v 0.584842 0.000000 -0.242249
v 0.620865 0.000000 -0.123498
v 0.633028 0.000000 0.000000
v 0.620865 0.000000 0.123498
v 0.584842 0.000000 0.242249
v 0.526344 0.000000 0.351692
v 0.447619 0.000000 0.447619
v 0.351692 0.000000 0.526344
v 0.242250 0.000000 0.584842
v 0.123498 0.000000 0.620865
v -0.000000 0.000000 0.633028
v -0.123498 0.000000 0.620865
v -0.242249 0.000000 0.584842
v -0.351692 0.000000 0.526344
v -0.447619 0.000000 0.447619
v -0.526344 0.000000 0.351692
v -0.584842 0.000000 0.242250
v -0.620865 0.000000 0.123498
v -0.633028 0.000000 -0.000000
v -0.620865 0.000000 -0.123498
v -0.584842 0.000000 -0.242250
v -0.526344 0.000000 -0.351692
v -0.447619 0.000000 -0.447619
v -0.351692 0.000000 -0.526344
v -0.242249 0.000000 -0.584842
v -0.123498 0.000000 -0.620865
v 0.000000 0.500000 -0.442950
v 0.086415 0.500000 -0.434439
v 0.169510 0.500000 -0.409233
v 0.246090 0.500000 -0.368300
v 0.313213 0.500000 -0.313213
v 0.368300 0.500000 -0.246090
v 0.409233 0.500000 -0.169510
v 0.434439 0.500000 -0.086415
v 0.442950 0.500000 0.000000
v 0.434439 0.500000 0.086415
v 0.409233 0.500000 0.169510
v 0.368300 0.500000 0.246090
v 0.313213 0.500000 0.313213
v 0.246090 0.500000 0.368300
v 0.169510 0.500000 0.409233
v 0.086415 0.500000 0.434439
v -0.000000 0.500000 0.442950
v -0.086415 0.500000 0.434439
v -0.169510 0.500000 0.409233
v -0.246090 0.500000 0.368300
v -0.313213 0.500000 0.313213
v -0.368300 0.500000 0.246090
v -0.409233 0.500000 0.169510
v -0.434439 0.500000 0.086415
v -0.442950 0.500000 0.000000
v -0.434439 0.500000 -0.086415
v -0.409232 0.500000 -0.169510
v -0.368300 0.500000 -0.246090
v -0.313213 0.500000 -0.313213
v -0.246090 0.500000 -0.368300
v -0.169510 0.500000 -0.409233
v -0.086415 0.500000 -0.434439
v 0.158545 -0.500000 -0.797060
v 0.310998 -0.500000 -0.750814
v 0.451498 -0.500000 -0.675715
v 0.574648 -0.500000 -0.574648
v 0.675715 -0.500000 -0.451498
v 0.750814 -0.500000 -0.310998
v 0.797060 -0.500000 -0.158545
v 0.812676 -0.500000 0.000000
v 0.797060 -0.500000 0.158545
v 0.750814 -0.500000 0.310997
v 0.675715 -0.500000 0.451498
v 0.574648 -0.500000 0.574648
v 0.451498 -0.500000 0.675715
v 0.310998 -0.500000 0.750814
v 0.158545 -0.500000 0.797060
v -0.000000 -0.500000 0.812676
v -0.158545 -0.500000 0.797060
v -0.310998 -0.500000 0.750814
v -0.451499 -0.500000 0.675715
v -0.574648 -0.500000 0.574649
v -0.675715 -0.500000 0.451499
v -0.750814 -0.500000 0.310998
v -0.797060 -0.500000 0.158545
v -0.812676 -0.500000 -0.000000
v -0.797060 -0.500000 -0.158545
v -0.750814 -0.500000 -0.310998
v -0.675715 -0.500000 -0.451498
v -0.574649 -0.500000 -0.574648
v -0.451499 -0.500000 -0.675715
v -0.310998 -0.500000 -0.750814
v -0.158545 -0.500000 -0.797060
v 0.000000 -0.500000 -0.812676
vt 1.000000 0.875000
vt 1.000000 1.000000
vt 0.968750 1.000000
vt 0.968750 0.875000
vt 0.937500 1.000000
vt 0.937500 0.875000
vt 0.906250 1.000000
vt 0.906250 0.875000
vt 0.875000 1.000000
vt 0.875000 0.875000
vt 0.843750 1.000000
vt 0.843750 0.875000
vt 0.812500 1.000000
vt 0.812500 0.875000
vt 0.781250 1.000000
vt 0.781250 0.875000
vt 0.750000 1.000000
vt 0.750000 0.875000
vt 0.718750 1.000000
vt 0.718750 0.875000
vt 0.687500 1.000000
vt 0.687500 0.875000
vt 0.656250 1.000000
vt 0.656250 0.875000
vt 0.625000 1.000000
vt 0.625000 0.875000
vt 0.593750 1.000000
vt 0.593750 0.875000
vt 0.562500 1.000000
vt 0.562500 0.875000
vt 0.531250 1.000000
vt 0.531250 0.875000
vt 0.500000 1.000000
vt 0.500000 0.875000
vt 0.468750 1.000000
vt 0.468750 0.875000
vt 0.437500 1.000000
vt 0.437500 0.875000
vt 0.406250 1.000000
vt 0.406250 0.875000
vt 0.375000 1.000000
vt 0.375000 0.875000
vt 0.343750 1.000000
vt 0.343750 0.875000
vt 0.312500 1.000000
vt 0.312500 0.875000
vt 0.281250 1.000000
vt 0.281250 0.875000
vt 0.250000 1.000000
vt 0.250000 0.875000
vt 0.218750 1.000000
vt 0.218750 0.875000
vt 0.187500 1.000000
vt 0.187500 0.875000
vt 0.156250 1.000000
vt 0.156250 0.875000
vt 0.125000 1.000000
vt 0.125000 0.875000
vt 0.093750 1.000000
vt 0.093750 0.875000
vt 0.062500 1.000000
vt 0.062500 0.875000
vt 0.296822 0.485388
vt 0.250000 0.490000
vt 0.203178 0.485388
vt 0.158156 0.471731
vt 0.116663 0.449553
vt 0.080294 0.419706
vt 0.050447 0.383337
vt 0.028269 0.341844
vt 0.014612 0.296822
vt 0.010000 0.250000
vt 0.014612 0.203178
vt 0.028269 0.158156
vt 0.050447 0.116663
vt 0.080294 0.080294
vt 0.116663 0.050447
vt 0.158156 0.028269
vt 0.203178 0.014612
vt 0.250000 0.010000
vt 0.296822 0.014612
vt 0.341844 0.028269
vt 0.383337 0.050447
vt 0.419706 0.080294
vt 0.449553 0.116663
vt 0.471731 0.158156
vt 0.485388 0.203178
vt 0.490000 0.250000
vt 0.485388 0.296822
vt 0.471731 0.341844
vt 0.449553 0.383337
vt 0.419706 0.419706
vt 0.383337 0.449553
vt 0.341844 0.471731
vt 0.031250 1.000000
vt 0.031250 0.875000
vt 0.000000 1.000000
vt 0.000000 0.875000
vt 0.750000 0.490000
vt 0.796822 0.485388
vt 0.841844 0.471731
vt 0.883337 0.449553
vt 0.919706 0.419706
vt 0.949553 0.383337
vt 0.971731 0.341844
vt 0.985388 0.296822
vt 0.990000 0.250000
vt 0.985388 0.203178
vt 0.971731 0.158156
vt 0.949553 0.116663
vt 0.919706 0.080294
vt 0.883337 0.050447
vt 0.841844 0.028269
vt 0.796822 0.014612
vt 0.750000 0.010000
vt 0.703178 0.014612
vt 0.658156 0.028269
vt 0.616663 0.050447
vt 0.580294 0.080294
vt 0.550447 0.116663
vt 0.528269 0.158156
vt 0.514612 0.203178
vt 0.510000 0.250000
vt 0.514612 0.296822
vt 0.528269 0.341844
vt 0.550447 0.383337
vt 0.580294 0.419706
vt 0.616663 0.449553
vt 0.658156 0.471731
vt 0.703178 0.485388
vt 0.031250 0.625000
vt 0.031250 0.750000
vt 0.000000 0.750000
vt 0.000000 0.625000
vt 0.062500 0.625000
vt 0.062500 0.750000
vt 0.093750 0.625000
vt 0.093750 0.750000
vt 0.125000 0.625000
vt 0.125000 0.750000
vt 0.156250 0.625000
vt 0.156250 0.750000
vt 0.187500 0.625000
vt 0.187500 0.750000
vt 0.218750 0.625000
vt 0.218750 0.750000
vt 0.250000 0.625000
vt 0.250000 0.750000
vt 0.281250 0.625000
vt 0.281250 0.750000
vt 0.312500 0.625000
vt 0.312500 0.750000
vt 0.343750 0.625000
vt 0.343750 0.750000
vt 0.375000 0.625000
vt 0.375000 0.750000
vt 0.406250 0.625000
vt 0.406250 0.750000
vt 0.437500 0.625000
vt 0.437500 0.750000
vt 0.468750 0.625000
vt 0.468750 0.750000
vt 0.500000 0.625000
vt 0.500000 0.750000
vt 0.531250 0.625000
vt 0.531250 0.750000
vt 0.562500 0.625000
vt 0.562500 0.750000
vt 0.593750 0.625000
vt 0.593750 0.750000
vt 0.625000 0.625000
vt 0.625000 0.750000
vt 0.656250 0.625000
vt 0.656250 0.750000
vt 0.687500 0.625000
vt 0.687500 0.750000
vt 0.718750 0.625000
vt 0.718750 0.750000
vt 0.750000 0.625000
vt 0.750000 0.750000
vt 0.781250 0.625000
vt 0.781250 0.750000
vt 0.812500 0.625000
vt 0.812500 0.750000
vt 0.843750 0.625000
vt 0.843750 0.750000
vt 0.875000 0.625000
vt 0.875000 0.750000
vt 0.906250 0.625000
vt 0.906250 0.750000
vt 0.937500 0.625000
vt 0.937500 0.750000
vt 0.968750 0.625000
vt 0.968750 0.750000
vt 1.000000 0.625000
vt 1.000000 0.750000
vt 1.000000 0.500000
vt 0.968750 0.500000
vt 0.937500 0.500000
vt 0.906250 0.500000
vt 0.875000 0.500000
vt 0.843750 0.500000
vt 0.812500 0.500000
vt 0.781250 0.500000
vt 0.750000 0.500000
vt 0.718750 0.500000
vt 0.687500 0.500000
vt 0.656250 0.500000
vt 0.625000 0.500000
vt 0.593750 0.500000
vt 0.562500 0.500000
vt 0.531250 0.500000
vt 0.500000 0.500000
vt 0.468750 0.500000
vt 0.437500 0.500000
vt 0.406250 0.500000
vt 0.375000 0.500000
vt 0.343750 0.500000
vt 0.312500 0.500000
vt 0.281250 0.500000
vt 0.250000 0.500000
vt 0.218750 0.500000
vt 0.187500 0.500000
vt 0.156250 0.500000
vt 0.125000 0.500000
vt 0.093750 0.500000
vt 0.062500 0.500000
vt 0.031250 0.500000
vt 0.000000 0.500000
vn 0.0978 0.0688 -0.9928
vn 0.2896 0.0688 -0.9547
vn 0.4703 0.0688 -0.8798
vn 0.6329 0.0688 -0.7712
vn 0.7712 0.0688 -0.6329
vn 0.8798 0.0688 -0.4703
vn 0.9547 0.0688 -0.2896
vn 0.9928 0.0688 -0.0978
vn 0.9928 0.0688 0.0978
vn 0.9547 0.0688 0.2896
vn 0.8798 0.0688 0.4703
vn 0.7712 0.0688 0.6329
vn 0.6329 0.0688 0.7712
vn 0.4703 0.0688 0.8798
vn 0.2896 0.0688 0.9547
vn 0.0978 0.0688 0.9928
vn -0.0978 0.0688 0.9928
vn -0.2896 0.0688 0.9547
vn -0.4703 0.0688 0.8798
vn -0.6329 0.0688 0.7712
vn -0.7712 0.0688 0.6329
vn -0.8798 0.0688 0.4703
vn -0.9547 0.0688 0.2896
vn -0.9928 0.0688 0.0978
vn -0.9928 0.0688 -0.0978
vn -0.9547 0.0688 -0.2896
vn -0.8798 0.0688 -0.4703
vn -0.7712 0.0688 -0.6329
vn -0.6329 0.0688 -0.7712
vn -0.4703 0.0688 -0.8798
vn 0.0000 1.0000 0.0000
vn -0.2896 0.0688 -0.9547
vn -0.0978 0.0688 -0.9928
vn 0.0000 -1.0000 0.0000
vn -0.0923 0.3367 -0.9371
vn -0.2733 0.3367 -0.9011
vn -0.4439 0.3367 -0.8304
vn -0.5974 0.3367 -0.7279
vn -0.7279 0.3367 -0.5974
vn -0.8304 0.3367 -0.4439
vn -0.9011 0.3367 -0.2733
vn -0.9371 0.3367 -0.0923
vn -0.9371 0.3367 0.0923
vn -0.9011 0.3367 0.2733
vn -0.8304 0.3367 0.4439
vn -0.7279 0.3367 0.5974
vn -0.5974 0.3367 0.7279
vn -0.4439 0.3367 0.8304
vn -0.2733 0.3367 0.9011
vn -0.0923 0.3367 0.9371
vn 0.0923 0.3367 0.9371
vn 0.2733 0.3367 0.9011
vn 0.4439 0.3367 0.8304
vn 0.5974 0.3367 0.7279
vn 0.7279 0.3367 0.5974
vn 0.8304 0.3367 0.4439
vn 0.9011 0.3367 0.2733
vn 0.9371 0.3367 0.0923
vn 0.9371 0.3367 -0.0923
vn 0.9011 0.3367 -0.2733
vn 0.8304 0.3367 -0.4439
vn 0.7279 0.3367 -0.5974
vn 0.5974 0.3367 -0.7279
vn 0.4439 0.3367 -0.8304
vn 0.2733 0.3367 -0.9011
vn 0.0923 0.3367 -0.9371
vn -0.0917 0.3538 -0.9308
vn -0.2715 0.3538 -0.8950
vn -0.4409 0.3538 -0.8249
vn -0.5933 0.3538 -0.7230
vn -0.7230 0.3538 -0.5933
vn -0.8249 0.3538 -0.4409
vn -0.8950 0.3538 -0.2715
vn -0.9308 0.3538 -0.0917
vn -0.9308 0.3538 0.0917
vn -0.8950 0.3538 0.2715
vn -0.8249 0.3538 0.4409
vn -0.7230 0.3538 0.5933
vn -0.5933 0.3538 0.7230
vn -0.4409 0.3538 0.8249
vn -0.2715 0.3538 0.8950
vn -0.0917 0.3538 0.9308
vn 0.0917 0.3538 0.9308
vn 0.2715 0.3538 0.8950
vn 0.4409 0.3538 0.8249
vn 0.5933 0.3538 0.7230
vn 0.7230 0.3538 0.5933
vn 0.8249 0.3538 0.4409
vn 0.8950 0.3538 0.2715
vn 0.9308 0.3538 0.0917
vn 0.9308 0.3538 -0.0917
vn 0.8950 0.3538 -0.2715
vn 0.8249 0.3538 -0.4409
vn 0.7230 0.3538 -0.5933
vn 0.5933 0.3538 -0.7230
vn 0.4409 0.3538 -0.8249
vn 0.2715 0.3538 -0.8950
vn 0.0917 0.3538 -0.9308
vn 0.0918 0.3494 -0.9325
vn 0.2720 0.3494 -0.8966
vn 0.4417 0.3494 -0.8264
vn 0.5944 0.3494 -0.7243
vn 0.7243 0.3494 -0.5944
vn 0.8264 0.3494 -0.4417
vn 0.8966 0.3494 -0.2720
vn 0.9325 0.3494 -0.0918
vn 0.9325 0.3494 0.0918
vn 0.8966 0.3494 0.2720
vn 0.8264 0.3494 0.4417
vn 0.7243 0.3494 0.5944
vn 0.5944 0.3494 0.7243
vn 0.4417 0.3494 0.8264
vn 0.2720 0.3494 0.8966
vn 0.0918 0.3494 0.9325
vn -0.0918 0.3494 0.9325
vn -0.2720 0.3494 0.8966
vn -0.4417 0.3494 0.8264
vn -0.5944 0.3494 0.7243
vn -0.7243 0.3494 0.5944
vn -0.8264 0.3494 0.4417
vn -0.8966 0.3494 0.2720
vn -0.9325 0.3494 0.0918
vn -0.9325 0.3494 -0.0918
vn -0.8966 0.3494 -0.2720
vn -0.8264 0.3494 -0.4417
vn -0.7243 0.3494 -0.5944
vn -0.5944 0.3494 -0.7243
vn -0.4417 0.3494 -0.8264
vn -0.2720 0.3494 -0.8966
vn -0.0918 0.3494 -0.9325
usemtl None
s off
f 97/1/1 2/2/1 4/3/1 98/4/1
f 98/4/2 4/3/2 6/5/2 99/6/2
f 99/6/3 6/5/3 8/7/3 100/8/3
f 100/8/4 8/7/4 10/9/4 101/10/4
f 101/10/5 10/9/5 12/11/5 102/12/5
f 102/12/6 12/11/6 14/13/6 103/14/6
f 103/14/7 14/13/7 16/15/7 104/16/7
f 104/16/8 16/15/8 18/17/8 105/18/8
f 105/18/9 18/17/9 20/19/9 106/20/9
f 106/20/10 20/19/10 22/21/10 107/22/10
f 107/22/11 22/21/11 24/23/11 108/24/11
f 108/24/12 24/23/12 26/25/12 109/26/12
f 109/26/13 26/25/13 28/27/13 110/28/13
f 110/28/14 28/27/14 30/29/14 111/30/14
f 111/30/15 30/29/15 32/31/15 112/32/15
f 112/32/16 32/31/16 34/33/16 113/34/16
f 113/34/17 34/33/17 36/35/17 114/36/17
f 114/36/18 36/35/18 38/37/18 115/38/18
f 115/38/19 38/37/19 40/39/19 116/40/19
f 116/40/20 40/39/20 42/41/20 117/42/20
f 117/42/21 42/41/21 44/43/21 118/44/21
f 118/44/22 44/43/22 46/45/22 119/46/22
f 119/46/23 46/45/23 48/47/23 120/48/23
f 120/48/24 48/47/24 50/49/24 121/50/24
f 121/50/25 50/49/25 52/51/25 122/52/25
f 122/52/26 52/51/26 54/53/26 123/54/26
f 123/54/27 54/53/27 56/55/27 124/56/27
f 124/56/28 56/55/28 58/57/28 125/58/28
f 125/58/29 58/57/29 60/59/29 126/60/29
f 126/60/30 60/59/30 62/61/30 127/62/30
f 4/63/31 2/64/31 64/65/31 62/66/31 60/67/31 58/68/31 56/69/31 54/70/31 52/71/31 50/72/31 48/73/31 46/74/31 44/75/31 42/76/31 40/77/31 38/78/31 36/79/31 34/80/31 32/81/31 30/82/31 28/83/31 26/84/31 24/85/31 22/86/31 20/87/31 18/88/31 16/89/31 14/90/31 12/91/31 10/92/31 8/93/31 6/94/31
f 127/62/32 62/61/32 64/95/32 128/96/32
f 128/96/33 64/95/33 2/97/33 97/98/33
f 1/99/34 3/100/34 5/101/34 7/102/34 9/103/34 11/104/34 13/105/34 15/106/34 17/107/34 19/108/34 21/109/34 23/110/34 25/111/34 27/112/34 29/113/34 31/114/34 33/115/34 35/116/34 37/117/34 39/118/34 41/119/34 43/120/34 45/121/34 47/122/34 49/123/34 51/124/34 53/125/34 55/126/34 57/127/34 59/128/34 61/129/34 63/130/34
f 159/131/35 96/132/35 65/133/35 160/134/35
f 158/135/36 95/136/36 96/132/36 159/131/36
f 157/137/37 94/138/37 95/136/37 158/135/37
f 156/139/38 93/140/38 94/138/38 157/137/38
f 155/141/39 92/142/39 93/140/39 156/139/39
f 154/143/40 91/144/40 92/142/40 155/141/40
f 153/145/41 90/146/41 91/144/41 154/143/41
f 152/147/42 89/148/42 90/146/42 153/145/42
f 151/149/43 88/150/43 89/148/43 152/147/43
f 150/151/44 87/152/44 88/150/44 151/149/44
f 149/153/45 86/154/45 87/152/45 150/151/45
f 148/155/46 85/156/46 86/154/46 149/153/46
f 147/157/47 84/158/47 85/156/47 148/155/47
f 146/159/48 83/160/48 84/158/48 147/157/48
f 145/161/49 82/162/49 83/160/49 146/159/49
f 144/163/50 81/164/50 82/162/50 145/161/50
f 143/165/51 80/166/51 81/164/51 144/163/51
f 142/167/52 79/168/52 80/166/52 143/165/52
f 141/169/53 78/170/53 79/168/53 142/167/53
f 140/171/54 77/172/54 78/170/54 141/169/54
f 139/173/55 76/174/55 77/172/55 140/171/55
f 138/175/56 75/176/56 76/174/56 139/173/56
f 137/177/57 74/178/57 75/176/57 138/175/57
f 136/179/58 73/180/58 74/178/58 137/177/58
f 135/181/59 72/182/59 73/180/59 136/179/59
f 134/183/60 71/184/60 72/182/60 135/181/60
f 133/185/61 70/186/61 71/184/61 134/183/61
f 132/187/62 69/188/62 70/186/62 133/185/62
f 131/189/63 68/190/63 69/188/63 132/187/63
f 130/191/64 67/192/64 68/190/64 131/189/64
f 129/193/65 66/194/65 67/192/65 130/191/65
f 160/195/66 65/196/66 66/194/66 129/193/66
f 96/132/67 128/96/67 97/98/67 65/133/67
f 95/136/68 127/62/68 128/96/68 96/132/68
f 94/138/69 126/60/69 127/62/69 95/136/69
f 93/140/70 125/58/70 126/60/70 94/138/70
f 92/142/71 124/56/71 125/58/71 93/140/71
f 91/144/72 123/54/72 124/56/72 92/142/72
f 90/146/73 122/52/73 123/54/73 91/144/73
f 89/148/74 121/50/74 122/52/74 90/146/74
f 88/150/75 120/48/75 121/50/75 89/148/75
f 87/152/76 119/46/76 120/48/76 88/150/76
f 86/154/77 118/44/77 119/46/77 87/152/77
f 85/156/78 117/42/78 118/44/78 86/154/78
f 84/158/79 116/40/79 117/42/79 85/156/79
f 83/160/80 115/38/80 116/40/80 84/158/80
f 82/162/81 114/36/81 115/38/81 83/160/81
f 81/164/82 113/34/82 114/36/82 82/162/82
f 80/166/83 112/32/83 113/34/83 81/164/83
f 79/168/84 111/30/84 112/32/84 80/166/84
f 78/170/85 110/28/85 111/30/85 79/168/85
f 77/172/86 109/26/86 110/28/86 78/170/86
f 76/174/87 108/24/87 109/26/87 77/172/87
f 75/176/88 107/22/88 108/24/88 76/174/88
f 74/178/89 106/20/89 107/22/89 75/176/89
f 73/180/90 105/18/90 106/20/90 74/178/90
f 72/182/91 104/16/91 105/18/91 73/180/91
f 71/184/92 103/14/92 104/16/92 72/182/92
f 70/186/93 102/12/93 103/14/93 71/184/93
f 69/188/94 101/10/94 102/12/94 70/186/94
f 68/190/95 100/8/95 101/10/95 69/188/95
f 67/192/96 99/6/96 100/8/96 68/190/96
f 66/194/97 98/4/97 99/6/97 67/192/97
f 65/196/98 97/1/98 98/4/98 66/194/98
f 1/197/99 160/195/99 129/193/99 3/198/99
f 3/198/100 129/193/100 130/191/100 5/199/100
f 5/199/101 130/191/101 131/189/101 7/200/101
f 7/200/102 131/189/102 132/187/102 9/201/102
f 9/201/103 132/187/103 133/185/103 11/202/103
f 11/202/104 133/185/104 134/183/104 13/203/104
f 13/203/105 134/183/105 135/181/105 15/204/105
f 15/204/106 135/181/106 136/179/106 17/205/106
f 17/205/107 136/179/107 137/177/107 19/206/107
f 19/206/108 137/177/108 138/175/108 21/207/108
f 21/207/109 138/175/109 139/173/109 23/208/109
f 23/208/110 139/173/110 140/171/110 25/209/110
f 25/209/111 140/171/111 141/169/111 27/210/111
f 27/210/112 141/169/112 142/167/112 29/211/112
f 29/211/113 142/167/113 143/165/113 31/212/113
f 31/212/114 143/165/114 144/163/114 33/213/114
f 33/213/115 144/163/115 145/161/115 35/214/115
f 35/214/116 145/161/116 146/159/116 37/215/116
f 37/215/117 146/159/117 147/157/117 39/216/117
f 39/216/118 147/157/118 148/155/118 41/217/118
f 41/217/119 148/155/119 149/153/119 43/218/119
f 43/218/120 149/153/120 150/151/120 45/219/120
f 45/219/121 150/151/121 151/149/121 47/220/121
f 47/220/122 151/149/122 152/147/122 49/221/122
f 49/221/123 152/147/123 153/145/123 51/222/123
f 51/222/124 153/145/124 154/143/124 53/223/124
f 53/223/125 154/143/125 155/141/125 55/224/125
f 55/224/126 155/141/126 156/139/126 57/225/126
f 57/225/127 156/139/127 157/137/127 59/226/127
f 59/226/128 157/137/128 158/135/128 61/227/128
f 61/227/129 158/135/129 159/131/129 63/228/129
f 63/228/130 159/131/130 160/134/130 1/229/130
